<?xml version="1.0" encoding="UTF-8"?>
<svg id="_Слой_2" data-name="Слой 2" xmlns="http://www.w3.org/2000/svg" viewBox="0 0 1746.54 1226.69">
  <defs>
    <style>
      .cls-1 {
        fill: none;
      }

      .cls-2 {
        fill: #f8b014;
      }
    </style>
  </defs>
  <g id="_Слой_2-2" data-name=" Слой 2">
    <g id="_Слой_2-2" data-name=" Слой 2-2">
      <g>
        <path class="cls-1" d="M1538.7,594.3c0-8.04-10.4-17.82-17.94-17.82h-48.54v36.87h48.54c7.08,0,17.94-11.48,17.94-19.05Z"/>
        <path class="cls-2" d="M1472.12,653.93c.13,8.02.6,16.1.15,24-.13,2.25-1.47,14.64-1.88,15.33-2.19,3.75-26.24,3.87-30.12-.63v-105.18l-52.19-108.94-55.02,87.72.08,126.19c-1.61,4.81-26.63,4.99-30.52.2v-89.11c-2.78-.22-4.44,2.59-6.11,4.34-12.37,12.96-22.59,31.46-35.03,44.85-3.56,3.05-10.3,2.97-14.85,2.51-5.08-.52-4.6-1.21-7.96-4.36-13.08-12.27-23.21-32.83-35.62-45.46-1.17-1.19-1.59-2.34-3.65-1.87l-.82,89.44c-1.66,3.89-17.51,3.13-21.96,2.78-2.72-.21-9.17-.71-9.17-4.35v-142.57h.01c1.3-1.93,3.38-1.8,5.35-2.13,5.38-.89,21.68-1.68,25.32,2.17.17.18.32.37.45.57l52.31,66.57c.23,0,.46-.03.73-.08l43.92-57.08-124.71-220.11-88.38,135L723.8,0l239.15,583.35c4.12-9.57,8.39-19.23,12.82-27.31h0l.24-.43c.79-1.43,1.59-2.84,2.39-4.16.04-.06.07-.11.11-.16l3.35-5.8h29.48l6.94,14.88,59.57,127.33c2.89,8.12-5.91,8.87-14.95,8.35h-14.04l-.6-.96-16.16-32.38h0l-36.61-.03,40.09,97.8,75.76-107.81,128.21,247.67,96.15-142.77,410.84,469.12-274.41-572.77h0Z"/>
        <path d="M326.91,543.29h-8.6s-37.89-2.54-62.06,27.9h.02c-35.47,40.76-21.52,114.73,50.53,125.57,123.04,18.5,142.15-145.49,20.11-153.47h0ZM377.16,628.58c-4.43,35.88-55.17,45.91-83.04,31.7-27.74-14.15-34.1-49.28-10.73-70.8h0c32.68-30.09,100.13-12.46,93.77,39.1h0Z"/>
        <path d="M1470.39,693.26c.41-.69,1.75-13.08,1.88-15.33.45-7.91-.02-15.99-.15-24-.05-3.3-.05-6.59.1-9.85h52.23c21.24,0,44.53-23.76,47.31-44.25h0c.33-2.44.37-7.93.12-11.11h0c1.32-41.21-54.77-43.64-54.77-43.64h-74.22l-1.86,2.67c-.46.42-.76.82-.76,1.09v143.8c3.88,4.5,27.93,4.38,30.12.63h0ZM1472.22,576.48h48.54c7.54,0,17.94,9.78,17.94,17.82,0,7.57-10.86,19.05-17.94,19.05h-48.54v-36.87Z"/>
        <path d="M1250.88,616l-52.31-66.57c-.13-.2-.28-.39-.45-.57-3.64-3.85-19.94-3.06-25.32-2.17-1.97.33-4.05.2-5.35,2.13h-.01v142.57c0,3.64,6.45,4.14,9.17,4.35,4.45.35,20.3,1.11,21.96-2.78l.82-89.44c2.06-.47,2.48.68,3.65,1.87,12.41,12.63,22.54,33.19,35.62,45.46,3.36,3.15,2.88,3.84,7.96,4.36,4.55.46,11.29.54,14.85-2.51,12.44-13.39,22.66-31.89,35.03-44.85,1.67-1.75,3.33-4.56,6.11-4.34v89.11c3.89,4.79,28.91,4.61,30.52-.2l-.08-126.19v-18.96c-2.41-2.38-25.19-2.22-28.35-.36l-9.18,11.93-43.92,57.08c-.26.05-.5.07-.73.08h.01Z"/>
        <path d="M156.1,546.35c-2.11-.99-24.45-1.16-27.62-.57-2,.37-3.19,1.44-4.36,3.01l-43.6,105.09-47.23-106.37c-1.08-1.59-2.63-1.59-4.32-1.82-3.39-.45-24.38-.36-26.48.67-4.17,2.04-2.19,8.34-.59,11.66l62.23,137.48h32.17l1.85-4.49,60.31-141.98c-.65-.92-1.34-2.2-2.35-2.68h0Z"/>
        <path d="M837.5,545.75h-126.57c-3.6,0-4.12,5.29-4.35,7.94-.32,3.75-1.07,22.79,3.12,22.79h47.31v114.92c0,.35,1.91,3.36,2.46,3.69,4.34.61,29.49,2.46,29.49-2.46v-116.18h13.93v.03h34.61c4.16,0,3.54-20.19,3.15-24.04-.19-1.82-.95-6.69-3.15-6.69Z"/>
        <path d="M621.24,664.97h-84.18v-114.92c0-3.6-5.29-4.12-7.94-4.35-4.3-.37-22.79-1.27-24.02,3.12h.02v143.8c0,.21,2.85,3.07,3.07,3.07h114.28l1.84-1.84v-25.81c0-.21-2.85-3.07-3.07-3.07Z"/>
        <path class="cls-2" d="M996.05,587.62h-.02c-.09-.04-.2-.07-.3-.09-.03,0-.06-.01-.09-.02-.09-.01-.18-.02-.28-.02h-.11c-.13,0-.27.03-.43.06l-15.45,35.85-3.61,8.38c1.2-.25,3.72-.31,6.94-.26,2.51.04,5.45.14,8.53.26h25.06s.01,0,.01-.01l-19.95-43.97c-.09-.07-.19-.13-.3-.18h0Z"/>
        <path d="M1032.09,662.72l16.16,32.38.6.96h14.04c9.04.52,17.84-.23,14.95-8.35l-59.57-127.33-6.94-14.88h-29.48l-3.35,5.8c-.04.06-.08.11-.11.16-.8,1.32-1.6,2.72-2.39,4.16l-.24.42h0c-4.42,8.09-8.7,17.75-12.82,27.32-3.56,8.27-7.01,16.46-10.33,23.45-13.1,27.53-26.17,55.07-39.02,82.73-.68,2.83.85,5.6,3.78,6.16,2.93.56,24.45.35,26.43-.61l16.75-32.41,34.92.02,36.61.02h.01ZM1016.28,631.78h-25.06c-3.08-.12-6.02-.22-8.53-.26-3.22-.05-5.74,0-6.94.26l3.61-8.38,15.45-35.85c.15-.04.29-.05.43-.06h.11c.1,0,.19,0,.28.02.03,0,.06,0,.09.02.11.02.21.05.3.09h.02c.11.05.21.11.3.18l19.95,43.97s-.01,0-.01.01h0Z"/>
      </g>
    </g>
  </g>
</svg>